# xmcd
#
# Track frame offsets:
#	150
#	14125
#	27855
#	41447
#	53742
#	68690
#	82725
#	97120
#	109767
#	123032
#	136492
#	148917
#	161475
#	174250
#	188762
#	202260
#	217005
#	232032
#	245142
#	260587
#	275670
#	290257
#	303972
#	317235
#	330152
#
# Disc length: 4571 seconds
#
# Revision: 1
# Processed by: cddbd v1.5.2PL0 Copyright (c) Steve Scherf et al.
# Submitted via: audiograbber 1.83.01
#
DISCID=7111d919
DTITLE=Lonnie Johnson - Complete Chronological 1925-32 v.3
DYEAR=1900
DGENRE=
TTITLE0=St Louis Cyclone Blues
TTITLE1=Bedbug Blues Part 2
TTITLE2=6/88 Glide
TTITLE3=Tin Can Alley Blues
TTITLE4=Bitin' Fleas Blues
TTITLE5=Life Saver Blues
TTITLE6=Blue Ghost Blues
TTITLE7=Untitled
TTITLE8=The St Louis Train Kept Passing By
TTITLE9=When A Man Is Treated Like A Dog
TTITLE10=It's Hot - Let It Alone
TTITLE11=Bearcat Blues
TTITLE12=Why Should I Grieve After You've Gone
TTITLE13=Low Land Moan
TTITLE14=Sweet Potato Blues
TTITLE15=Kansas City Blues Part 1
TTITLE16=Kansas City Blues Part 2
TTITLE17=Memphis Stomp
TTITLE18=Violin Blues
TTITLE19=Keghouse Blues
TTITLE20=Shiftin' My Gear Blues
TTITLE21=Playing With The Striings
TTITLE22=Stompin 'Em Along Slow
TTITLE23=Away Down In The Alley Blues
TTITLE24=Blues in G
EXTD=DOCD-5065
EXTT0=
EXTT1=
EXTT2=
EXTT3=
EXTT4=
EXTT5=
EXTT6=
EXTT7=
EXTT8=
EXTT9=
EXTT10=
EXTT11=
EXTT12=
EXTT13=
EXTT14=
EXTT15=
EXTT16=
EXTT17=
EXTT18=
EXTT19=Keghouse vcl
EXTT20=Keghouse vcl
EXTT21=
EXTT22=
EXTT23=
EXTT24=
PLAYORDER=
